<?xml version="1.0" standalone="no"?>
<!DOCTYPE svg PUBLIC "-//W3C//DTD SVG 20010904//EN"
 "http://www.w3.org/TR/2001/REC-SVG-20010904/DTD/svg10.dtd">
<svg version="1.0" xmlns="http://www.w3.org/2000/svg"
 width="80.000000pt" height="80.000000pt" viewBox="0 0 80.000000 80.000000"
 preserveAspectRatio="xMidYMid meet">
<metadata>
Created by potrace 1.14, written by Peter Selinger 2001-2017
</metadata>
<g transform="translate(0.000000,80.000000) scale(0.100000,-0.100000)"
fill="#000000" stroke="none">
<path d="M0 400 l0 -400 400 0 400 0 0 400 0 400 -400 0 -400 0 0 -400z m270
255 c0 -21 -5 -25 -30 -25 l-30 0 0 -86 0 -85 -27 3 c-28 3 -28 4 -31 86 -3
80 -3 82 -27 82 -20 0 -25 5 -25 25 0 25 1 25 85 25 84 0 85 0 85 -25z m91 -6
l26 -32 19 31 c13 24 26 32 46 32 l28 0 0 -110 0 -110 -30 0 c-30 0 -30 0 -30
58 -1 43 -3 53 -11 40 -13 -22 -27 -23 -51 -1 -17 15 -18 14 -18 -40 0 -54 -1
-57 -25 -57 l-25 0 0 110 c0 107 1 110 23 110 13 0 33 -13 48 -31z"/>
</g>
</svg>
